<svg width="30" height="30" viewBox="0 0 30 30" fill="none" xmlns="http://www.w3.org/2000/svg">
<path d="M17.8125 22.5V21.0938C17.8125 19.3946 19.6605 17.7873 20.8594 16.6407C22.5492 15.0252 23.4375 12.8549 23.4375 10.3125C23.4375 5.62503 19.7033 1.87503 15 1.87503C13.8911 1.87194 12.7925 2.08807 11.7675 2.511C10.7424 2.93393 9.811 3.55531 9.02689 4.33942C8.24278 5.12353 7.6214 6.0549 7.19847 7.07998C6.77554 8.10507 6.55941 9.20364 6.5625 10.3125C6.5625 12.7641 7.48887 15.0815 9.14063 16.6407C10.333 17.7662 12.1875 19.377 12.1875 21.0938V22.5M13.125 28.125H16.875M12.1875 25.3125H17.8125M15 22.5V15" stroke="white" stroke-width="2" stroke-linecap="round" stroke-linejoin="round"/>
<path d="M17.2266 14.0625C17.2266 14.0625 15.9662 15 15 15C14.0338 15 12.7734 14.0625 12.7734 14.0625" stroke="white" stroke-width="2" stroke-linecap="round" stroke-linejoin="round"/>
</svg>
