<svg width="50" height="50" viewBox="0 0 50 50" fill="none" xmlns="http://www.w3.org/2000/svg">
<path d="M25 4.6875C13.7998 4.6875 4.6875 13.7998 4.6875 25C4.6875 36.2002 13.7998 45.3125 25 45.3125C36.2002 45.3125 45.3125 36.2002 45.3125 25C45.3125 13.7998 36.2002 4.6875 25 4.6875ZM32.3545 30.1455C32.5057 30.2892 32.6266 30.4616 32.7101 30.6527C32.7936 30.8438 32.838 31.0497 32.8407 31.2583C32.8433 31.4668 32.8042 31.6738 32.7256 31.867C32.6471 32.0602 32.5306 32.2357 32.3831 32.3831C32.2357 32.5306 32.0602 32.6471 31.867 32.7256C31.6738 32.8042 31.4668 32.8433 31.2583 32.8407C31.0497 32.838 30.8438 32.7936 30.6527 32.7101C30.4616 32.6266 30.2892 32.5057 30.1455 32.3545L25 27.21L19.8545 32.3545C19.5591 32.6351 19.1657 32.7893 18.7583 32.7841C18.3508 32.7789 17.9616 32.6147 17.6734 32.3266C17.3853 32.0384 17.2211 31.6492 17.2159 31.2417C17.2107 30.8343 17.3649 30.4409 17.6455 30.1455L22.79 25L17.6455 19.8545C17.3649 19.5591 17.2107 19.1657 17.2159 18.7583C17.2211 18.3508 17.3853 17.9616 17.6734 17.6734C17.9616 17.3853 18.3508 17.2211 18.7583 17.2159C19.1657 17.2107 19.5591 17.3649 19.8545 17.6455L25 22.79L30.1455 17.6455C30.4409 17.3649 30.8343 17.2107 31.2417 17.2159C31.6492 17.2211 32.0384 17.3853 32.3266 17.6734C32.6147 17.9616 32.7789 18.3508 32.7841 18.7583C32.7893 19.1657 32.6351 19.5591 32.3545 19.8545L27.21 25L32.3545 30.1455Z" fill="#444B54"/>
</svg>
