<svg width="28" height="25" viewBox="0 0 28 25" fill="none" xmlns="http://www.w3.org/2000/svg">
<path d="M23.75 3H4.25C3.38833 3.0009 2.56221 3.33642 1.95292 3.93293C1.34363 4.52944 1.00092 5.33822 1 6.18182V19.8182C1.00092 20.6618 1.34363 21.4706 1.95292 22.0671C2.56221 22.6636 3.38833 22.9991 4.25 23H23.75C24.6117 22.9991 25.4378 22.6636 26.0471 22.0671C26.6564 21.4706 26.9991 20.6618 27 19.8182V6.18182C26.9991 5.33822 26.6564 4.52944 26.0471 3.93293C25.4378 3.33642 24.6117 3.0009 23.75 3ZM22.9271 8.26307L14.5699 14.6267C14.4069 14.7507 14.2064 14.8181 14 14.8181C13.7936 14.8181 13.5931 14.7507 13.4301 14.6267L5.07295 8.26307C4.97476 8.19047 4.89228 8.0995 4.83032 7.99543C4.76835 7.89136 4.72813 7.77627 4.71199 7.65685C4.69585 7.53743 4.70412 7.41607 4.7363 7.2998C4.76849 7.18353 4.82395 7.07469 4.89948 6.97959C4.975 6.88449 5.06908 6.80504 5.17624 6.74585C5.2834 6.68665 5.40151 6.6489 5.5237 6.63478C5.64589 6.62066 5.76973 6.63045 5.88803 6.6636C6.00632 6.69674 6.1167 6.75257 6.21277 6.82784L14 12.7574L21.7872 6.82784C21.982 6.68388 22.2267 6.62073 22.4686 6.65207C22.7105 6.68341 22.9301 6.8067 23.0799 6.9953C23.2297 7.18389 23.2976 7.42262 23.269 7.65986C23.2404 7.89711 23.1176 8.1138 22.9271 8.26307Z" fill="white"/>
</svg>
