<svg width="25" height="25" viewBox="0 0 25 25" fill="none" xmlns="http://www.w3.org/2000/svg">
<g clip-path="url(#clip0_85_212)">
<path d="M24.8359 7.26514C24.8359 5.06787 23.2197 3.30029 21.2227 3.30029C18.5176 3.17383 15.7588 3.125 12.9394 3.125H12.0605C9.24804 3.125 6.48437 3.17383 3.77929 3.30078C1.7871 3.30078 0.17089 5.07813 0.17089 7.27539C0.0488199 9.01318 -0.00293794 10.7515 -8.24803e-06 12.4897C-0.00489106 14.228 0.0504475 15.9679 0.166007 17.7095C0.166007 19.9067 1.78222 21.689 3.77441 21.689C6.6162 21.8208 9.53124 21.8794 12.4951 21.8745C15.4639 21.8843 18.3708 21.8224 21.2158 21.689C23.2129 21.689 24.8291 19.9067 24.8291 17.7095C24.9463 15.9663 25 14.228 24.9951 12.4849C25.0062 10.7466 24.9531 9.00667 24.8359 7.26514ZM10.1074 17.2798V7.68506L17.1875 12.48L10.1074 17.2798Z" fill="white"/>
</g>
<defs>
<clipPath id="clip0_85_212">
<rect width="25" height="25" fill="white"/>
</clipPath>
</defs>
</svg>
